<svg width="576" height="512" xmlns="http://www.w3.org/2000/svg" aria-hidden="true" focusable="false" data-prefix="fas" data-icon="volume-up" class="svg-inline--fa fa-volume-up fa-w-18" role="img">
 <g>
  <title>Layer 1</title>
  <path id="svg_1" d="m215.03,71.05l-88.97,88.95l-102.06,0c-13.26,0 -24,10.74 -24,24l0,144c0,13.25 10.74,24 24,24l102.06,0l88.97,88.95c15.03,15.03 40.97,4.47 40.97,-16.97l0,-335.96c0,-21.46 -25.96,-31.98 -40.97,-16.97zm123.2,108.08c-11.58,-6.33 -26.19,-2.16 -32.61,9.45c-6.39,11.61 -2.16,26.2 9.45,32.61c12.91,7.09 20.93,20.44 20.93,34.81c0,14.38 -8.02,27.72 -20.92,34.81c-11.61,6.41 -15.84,21 -9.45,32.61c6.43,11.66 21.05,15.8 32.61,9.45c28.23,-15.55 45.77,-45 45.77,-76.88s-17.54,-61.32 -45.78,-76.86z" opacity="undefined" fill="#EDEDED"/>
 </g>

</svg>